Coordinates
version=1
nRows=29
nColumns=24
inDegrees=yes

Units are S.I. units (second, meters, Newtons, ...)
Angles are in degrees.

endheader
time	pelvis_tilt	pelvis_list	pelvis_rotation	pelvis_tx	pelvis_ty	pelvis_tz	hip_flexion_r	hip_adduction_r	hip_rotation_r	knee_angle_r	ankle_angle_r	subtalar_angle_r	mtp_angle_r	hip_flexion_l	hip_adduction_l	hip_rotation_l	knee_angle_l	ankle_angle_l	subtalar_angle_l	mtp_angle_l	lumbar_extension	lumbar_bending	lumbar_rotation
      5.14000000	      8.74064970	     -4.73131356	     -0.58888770	     -1.43258035	      0.77727754	      0.15183723	     16.66572836	      8.20670274	      3.40874703	     -6.01410979	      3.64687399	     -1.21755877	      0.00000000	    -40.94447754	     -1.19615805	      1.08111973	      2.79754789	     13.04000694	      2.58003513	      0.00000000	    -23.38984739	      7.34961186	    -16.98235421
      5.15000000	      8.88084917	     -5.70969949	     -1.34480621	     -1.41520681	      0.77666651	      0.15389752	     17.36964205	      9.79457142	      4.31775544	     -9.79341749	      2.22116565	     -3.40586319	      0.00000000	    -41.34508734	     -1.65307016	     -0.03337593	      0.81171993	     11.44178920	      3.04505301	      0.00000000	    -23.36414471	      8.16641866	    -15.86303799
      5.16000000	      9.03022166	     -6.63555343	     -1.95696123	     -1.39765671	      0.77637756	      0.15568319	     18.01924637	     11.27370709	      4.76993015	    -13.72271680	      1.33258629	     -4.87949047	      0.00000000	    -41.49551393	     -2.13644181	     -0.51809642	     -1.58955031	      9.58334059	      2.98358177	      0.00000000	    -23.28882439	      9.00187139	    -14.94329801
      5.17000000	      9.25324772	     -7.33312422	     -2.61871465	     -1.38027796	      0.77651963	      0.15749283	     18.42563178	     12.54903436	      5.55110309	    -17.49273699	      0.71689166	     -6.20930020	      0.00000000	    -41.34615564	     -2.35827827	     -0.65568641	     -4.53322028	      7.41293602	      2.62076664	      0.00000000	    -23.33161897	      9.56758538	    -14.22519751
      5.18000000	      9.49954080	     -7.87607511	     -3.20854491	     -1.36297001	      0.77702997	      0.15904528	     18.59887232	     13.61682376	      6.26719199	    -20.96976052	      0.81619679	     -6.93695122	      0.00000000	    -40.82232184	     -2.44616055	     -0.41540417	     -8.02116445	      5.06081909	      2.02602300	      0.00000000	    -23.37744075	     10.00898889	    -13.66646240
      5.19000000	      9.72155152	     -8.17671664	     -3.74900877	     -1.34602385	      0.77781736	      0.16029552	     18.61035645	     14.35993710	      6.80426231	    -24.11600731	      1.73997662	     -6.99275271	      0.00000000	    -39.80223766	     -2.31258782	      0.04211149	    -12.09482243	      2.74234674	      1.44532377	      0.00000000	    -23.43549940	     10.23436737	    -13.34208843
      5.20000000	      9.79611294	     -8.33498565	     -4.07827218	     -1.32929328	      0.77878810	      0.16117748	     18.51819905	     14.83113517	      7.03353114	    -26.72109826	      3.21423381	     -6.76886028	      0.00000000	    -38.12046199	     -2.20847503	      0.28595111	    -16.77020942	      0.64739467	      1.18840774	      0.00000000	    -23.28095869	     10.39766332	    -13.27184128
      5.21000000	     10.10185430	     -8.56925970	     -4.19732482	     -1.31302901	      0.78015652	      0.16189691	     17.88167024	     15.27089616	      7.15428069	    -28.70762974	      5.06462971	     -6.39451070	      0.00000000	    -36.26779508	     -2.35320292	     -0.06650234	    -21.87827285	     -1.00718676	      1.35357048	      0.00000000	    -23.47886575	     10.64290816	    -13.31875548
      5.22000000	      9.97792797	     -8.58958923	     -4.22059695	     -1.29722218	      0.78131138	      0.16250563	     17.51854989	     15.41071632	      7.01125810	    -30.22715296	      7.12133396	     -5.94094330	      0.00000000	    -33.55106143	     -2.51146525	     -0.56203238	    -27.27803734	     -2.43184697	      1.05850726	      0.00000000	    -23.17291818	     10.68870629	    -13.44990810
      5.23000000	      9.98953742	     -8.75768573	     -4.01459271	     -1.28181757	      0.78269911	      0.16300786	     16.76813041	     15.59808892	      6.67223352	    -31.18841287	      9.24332283	     -5.45505875	      0.00000000	    -30.78713565	     -3.04543813	     -1.31322595	    -32.66599899	     -3.34109488	      0.32903402	      0.00000000	    -23.07626145	     10.89207827	    -13.59571776
      5.24000000	      9.90371383	     -8.88155550	     -3.71516441	     -1.26680280	      0.78420453	      0.16351360	     15.94403042	     15.69133205	      6.26480163	    -31.72726261	     11.24172075	     -4.94997491	      0.00000000	    -27.80183792	     -3.70649963	     -2.09094593	    -37.83361333	     -3.91622050	     -1.21307201	      0.00000000	    -22.88374169	     11.02284802	    -13.75469810
      5.25000000	      9.85243009	     -8.98825592	     -3.38598917	     -1.25208720	      0.78595755	      0.16409409	     14.91974833	     15.74225462	      5.84667185	    -31.90219654	     13.05234804	     -4.46877032	      0.00000000	    -24.86423918	     -4.44386532	     -2.87715864	    -42.57099345	     -4.03101641	     -3.55073983	      0.00000000	    -22.75231804	     11.06679660	    -13.75467505
      5.26000000	      9.88800371	     -9.01337823	     -3.07933337	     -1.23761438	      0.78807128	      0.16477956	     13.66424184	     15.71010707	      5.53979468	    -31.79828537	     14.62981051	     -4.01286707	      0.00000000	    -22.09347074	     -5.13422908	     -3.62881383	    -46.73805345	     -3.70802924	     -6.57306644	      0.00000000	    -22.72941363	     10.94545182	    -13.58450995
      5.27000000	     10.01028290	     -8.91970674	     -2.84504509	     -1.22327640	      0.79060381	      0.16555800	     12.17915602	     15.56815877	      5.42258076	    -31.44844837	     15.94993431	     -3.59400157	      0.00000000	    -19.54075158	     -5.68213732	     -4.32347522	    -50.24062512	     -2.96231563	    -10.05664239	      0.00000000	    -22.79687635	     10.62302124	    -13.19703422
      5.28000000	     10.16167269	     -8.53704642	     -2.74762500	     -1.20924790	      0.79350800	      0.16650948	     10.59909859	     15.13864948	      5.43252306	    -30.96307552	     17.09777383	     -3.22430929	      0.00000000	    -17.09375219	     -5.89602825	     -4.98613382	    -53.10065546	     -2.05797606	    -13.74560946	      0.00000000	    -22.93667988	      9.87259109	    -12.63852768
      5.29000000	     10.41141529	     -8.03307052	     -2.74949559	     -1.19522602	      0.79683677	      0.16756752	      8.78004346	     14.60346519	      5.73865810	    -30.25692026	     17.96175805	     -2.97064829	      0.00000000	    -14.90768346	     -5.92757946	     -5.63549627	    -55.26551196	     -0.91660086	    -17.34608902	      0.00000000	    -23.14139540	      8.93997553	    -11.94412665
      5.30000000	     10.70044311	     -7.25756222	     -2.90083587	     -1.18155102	      0.80043743	      0.16881195	      6.88294574	     13.78963291	      6.20022803	    -29.43320718	     18.67384195	     -2.85776464	      0.00000000	    -12.82264038	     -5.61571082	     -6.27336702	    -56.86160580	      0.26486539	    -20.49400184	      0.00000000	    -23.45436848	      7.59497362	    -11.10131639
      5.31000000	     10.97972900	     -6.39067220	     -3.15020703	     -1.16797612	      0.80417838	      0.16999483	      4.93441036	     12.84627629	      6.80085299	    -28.46249390	     19.23416506	     -2.68734152	      0.00000000	    -10.82471815	     -5.13205312	     -6.89802248	    -57.91131528	      1.58647889	    -23.04862084	      0.00000000	    -23.74773629	      6.16274825	    -10.22420703
      5.32000000	     11.21666189	     -5.43207376	     -3.44727688	     -1.15461230	      0.80789564	      0.17116423	      3.00356179	     11.77943864	      7.44240704	    -27.34612410	     19.63122800	     -2.64517913	      0.00000000	     -8.81578393	     -4.50148014	     -7.45818358	    -58.53777278	      3.01123043	    -24.74766376	      0.00000000	    -24.01779831	      4.61892619	     -9.32710800
      5.33000000	     11.37914406	     -4.46081257	     -3.75419785	     -1.14139694	      0.81143392	      0.17220180	      1.13426841	     10.65281905	      8.00388538	    -26.09458050	     19.94061477	     -2.63213704	      0.00000000	     -6.75142812	     -3.80757424	     -7.94706841	    -58.80822984	      4.48265262	    -25.59135082	      0.00000000	    -24.22050453	      3.08352825	     -8.38515385
      5.34000000	     11.43705551	     -3.52592838	     -4.05275244	     -1.12832610	      0.81466771	      0.17305551	     -0.62683096	      9.52160197	      8.48002344	    -24.74674955	     20.15558812	     -2.59080115	      0.00000000	     -4.60247344	     -3.08985337	     -8.32566366	    -58.76036507	      6.04122087	    -25.60680575	      0.00000000	    -24.33392902	      1.64339025	     -7.46368990
      5.35000000	     11.38030598	     -2.68544836	     -4.33161226	     -1.11534703	      0.81750025	      0.17372664	     -2.27095767	      8.45341865	      8.84397251	    -23.31689253	     20.30695272	     -2.50161509	      0.00000000	     -2.37031837	     -2.42013662	     -8.59370016	    -58.42617377	      7.65827396	    -24.85059734	      0.00000000	    -24.33544469	      0.36577776	     -6.52191831
      5.36000000	     11.20414093	     -1.98579722	     -4.58469706	     -1.10244812	      0.81986502	      0.17424319	     -3.78319517	      7.50885362	      9.03918670	    -21.83365979	     20.36444824	     -2.40673866	      0.00000000	     -0.06432271	     -1.85397900	     -8.73055971	    -57.82389844	      9.27658501	    -23.48603403	      0.00000000	    -24.23485988	     -0.71098276	     -5.52640313
      5.37000000	     10.95457717	     -1.39385911	     -4.79120520	     -1.08955722	      0.82181846	      0.17451992	     -5.23247617	      6.65293213	      9.18911779	    -20.30173865	     20.38779864	     -2.21219347	      0.00000000	      2.22516354	     -1.32024904	     -8.66458109	    -56.88143534	     10.70287155	    -21.91262270	      0.00000000	    -24.06005210	     -1.59665276	     -4.58368927
      5.38000000	     10.64818412	     -0.94806264	     -5.00833704	     -1.07672147	      0.82335059	      0.17474916	     -6.61175384	      5.93824907	      9.19806235	    -18.75616885	     20.32107059	     -2.02862798	      0.00000000	      4.45929762	     -0.90571603	     -8.48704622	    -55.61385848	     11.87210670	    -20.26760749	      0.00000000	    -23.84558904	     -2.30897887	     -3.51471380
      5.39000000	     10.34089371	     -0.56552848	     -5.22848015	     -1.06387119	      0.82457982	      0.17482018	     -7.99762032	      5.26439910	      9.21026637	    -17.19635808	     20.22415310	     -1.75269407	      0.00000000	      6.51402265	     -0.47832726	     -8.13991677	    -53.89353954	     12.66673913	    -18.97397573	      0.00000000	    -23.63543047	     -2.91732493	     -2.48582749
      5.40000000	     10.03869641	     -0.24609759	     -5.45152891	     -1.05110248	      0.82553339	      0.17483514	     -9.36673670	      4.64557423	      9.08214923	    -15.64796409	     20.02301615	     -1.48598838	      0.00000000	      8.37979061	     -0.08148120	     -7.65740128	    -51.73799897	     13.00361336	    -18.14233727	      0.00000000	    -23.47232075	     -3.45196327	     -1.40500052
      5.41000000	      9.74235230	     -0.01338897	     -5.72519182	     -1.03842185	      0.82617763	      0.17494526	    -10.72087580	      4.11119981	      8.97260098	    -14.14096962	     19.79996111	     -1.14910375	      0.00000000	     10.00618530	      0.22440357	     -7.08444688	    -49.12338460	     13.13421405	    -17.69939538	      0.00000000	    -23.34042850	     -3.93709102	     -0.23958603
      5.42000000	      9.59329909	      0.28450330	     -6.17281415	     -1.02568795	      0.82674959	      0.17508445	    -12.21894738	      3.43190577	      8.95737666	    -12.64517442	     19.64801074	     -0.68572728	      0.00000000	     11.15493848	      0.60811728	     -6.60901056	    -45.88734128	     12.78142634	    -18.02947461	      0.00000000	    -23.35844897	     -4.49575083	      0.95935462
